<svg width="32" height="29" viewBox="0 0 32 29" fill="none" xmlns="http://www.w3.org/2000/svg">
<path fill-rule="evenodd" clip-rule="evenodd" d="M15.6921 0.000242508C15.6921 0.000242508 5.98513 8.52613 0.559972 13.1435C0.241874 13.4376 0 13.8652 0 14.3698C0 15.2525 0.701693 15.9664 1.56926 15.9664H4.70777V27.1427C4.70777 28.0254 5.40946 28.7393 6.27702 28.7393H10.9845C11.8521 28.7393 12.5538 28.0242 12.5538 27.1427V20.7569L18.8308 20.7561V27.142C18.8308 28.0236 19.5325 28.7388 20.4001 28.7388L25.1076 28.7391C25.9752 28.7391 26.6768 28.0252 26.6768 27.1425V15.9662H29.8154C30.6829 15.9662 31.3846 15.2522 31.3846 14.3695C31.3846 13.8649 31.1432 13.4374 30.7838 13.1433C25.3969 8.52621 15.6921 0.000242508 15.6921 0.000242508Z" fill="#ACACAC"/>
</svg>
